{"title":"Formula 1 2011 Race 19 Brazil Practice 2","uid":6844148,"size":835400445,"categoryP":"video","categoryS":"tv_shows","magnet":"?xt=urn:btih:2d6c3e32a25fa956c19ee358a566b06fbfdb97c7&amp;dn=Formula+1+2011+Race+19+Brazil+Practice+2&amp;tr=udp%3A%2F%2Ftracker.openbittorrent.com%3A80&amp;tr=udp%3A%2F%2Fopen.demonii.com%3A1337&amp;tr=udp%3A%2F%2Ftracker.coppersurfer.tk%3A6969&amp;tr=udp%3A%2F%2Fexodus.desync.com%3A6969","seeders":1,"leechers":0,"uploader":"jorrell0733","files":3,"time":1322295867,"description":"[img]http://www.khaolaknews.com/wp-content/uploads/2011/03/f1.jpg[/img]\n\nFormula One 2011 Season\n\nRace 19: Brazillian Grand Prix \n\nRecord Source: BBC One Red Button Stream\nOriginal Format: MPEG TS Stream\nDate: Friday 25th November 2011\nTime: 16:30 to 17:30\n\nBrazillian Grand Prix Practice Session 2\n\nBBC F1 coverage of the 2nd Practice Session for the 19th and final Race meeting of the \n2011 Formula One Season, The Brazillian Grand Prix from the Interlargos Curcuit\n\n**NOTE** As usual the BBC have fucked us F1 fans over again and the coverage was cut short due to the tennis over running, so the first 30 mins of practice 2 wasnt shown at all!\n\nI hope you have all appreciated my Formula 1 torrents for 2011, I will be uploading the 2012\nseason with coverage from the BBC for the races they cover and the remainder from SKY SPORTS!!\n\nSee you in 2012!\n\nEnjoy, TheBlackKnight\n\n\n\n\nComplete name                    : F1 2011 Race 19 Brazil Practice 2.mkv\nFormat                           : Matroska\nFormat version                   : Version 2\nFile size                        : 797 MiB\nDuration                         : 1h 8mn\nOverall bit rate                 : 1 630 Kbps\nWriting application              : HandBrake 0.9.5\nWriting library                  : libmkv 0.6.4.1\n\nVideo\nID                               : 1\nFormat                           : AVC\nFormat/Info                      : Advanced Video Codec\nFormat profile                   : &lt;a class=&quot;__cf_email__&quot; href=&quot;/cdn-cgi/l/email-protection&quot; data-cfemail=&quot;b7fad6ded9f7fb849987&quot;&gt;[email&amp;#160;protected]&lt;/a&gt;&lt;script cf-hash='f9e31' type=&quot;text/javascript&quot;&gt;\n/* &lt;![CDATA[ */!function(){try{var t=&quot;currentScript&quot;in document?document.currentScript:function(){for(var t=document.getElementsByTagName(&quot;script&quot;),e=t.length;e--;)if(t[e].getAttribute(&quot;cf-hash&quot;))return t[e]}();if(t&amp;&amp;t.previousSibling){var e,r,n,i,c=t.previousSibling,a=c.getAttribute(&quot;data-cfemail&quot;);if(a){for(e=&quot;&quot;,r=parseInt(a.substr(0,2),16),n=2;a.length-n;n+=2)i=parseInt(a.substr(n,2),16)^r,e+=String.fromCharCode(i);e=document.createTextNode(e),c.parentNode.replaceChild(e,c)}}}catch(u){}}();/* ]]&gt; */&lt;/script&gt;\nFormat settings, CABAC           : Yes\nFormat settings, ReFrames        : 4 frames\nFormat settings, GOP             : M=1, N=51\nCodec ID                         : V_MPEG4/ISO/AVC\nDuration                         : 1h 8mn\nBit rate                         : 1 500 Kbps\nWidth                            : 544 pixels\nHeight                           : 576 pixels\nDisplay aspect ratio             : 16:9\nFrame rate mode                  : Variable\nFrame rate                       : 25.000 fps\nColor space                      : YUV\nChroma subsampling               : 4:2:0\nBit depth                        : 8 bits\nScan type                        : Progressive\nBits/(Pixel*Frame)               : 0.191\nStream size                      : 718 MiB (90%)\nWriting library                  : x264 core 112\nLanguage                         : English\nColor primaries                  : BT.601-6 525, BT.1358 525, BT.1700 NTSC, SMPTE 170M\nTransfer characteristics         : BT.709-5, BT.1361\nMatrix coefficients              : BT.601-6 525, BT.1358 525, BT.1700 NTSC, SMPTE 170M\n\nAudio\nID                               : 2\nFormat                           : AC-3\nFormat/Info                      : Audio Coding 3\nMode extension                   : CM (complete main)\nCodec ID                         : A_AC3\nDuration                         : 1h 8mn\nBit rate mode                    : Constant\nBit rate                         : 128 Kbps\nChannel(s)                       : 2 channels\nChannel positions                : Front: L R\nSampling rate                    : 48.0 KHz\nBit depth                        : 16 bits\nCompression mode                 : Lossy\nStream size                      : 62.6 MiB (8%)\nLanguage                         : English\n\n","torrent":{"xt":"urn:btih:2d6c3e32a25fa956c19ee358a566b06fbfdb97c7","amp;dn":"Formula+1+2011+Race+19+Brazil+Practice+2","amp;tr":["udp%3A%2F%2Ftracker.openbittorrent.com%3A80","udp%3A%2F%2Fopen.demonii.com%3A1337","udp%3A%2F%2Ftracker.coppersurfer.tk%3A6969","udp%3A%2F%2Fexodus.desync.com%3A6969"],"infoHash":"2d6c3e32a25fa956c19ee358a566b06fbfdb97c7","infoHashBuffer":{"type":"Buffer","data":[45,108,62,50,162,95,169,86,193,158,227,88,165,102,176,111,191,219,151,199]},"announce":[],"urlList":[]}}